<svg width="133" height="131" viewBox="0 0 133 131" fill="none" xmlns="http://www.w3.org/2000/svg">
<ellipse cx="66.5057" cy="65.4743" rx="65.7396" ry="65.4443" fill="#E2DEDE"/>
<path d="M66.5062 64.1654C71.2884 64.1654 75.8748 62.3037 79.2563 58.99C82.6379 55.6762 84.5376 51.1818 84.5376 46.4954C84.5376 41.809 82.6379 37.3146 79.2563 34.0009C75.8748 30.6871 71.2884 28.8254 66.5062 28.8254C61.7239 28.8254 57.1376 30.6871 53.756 34.0009C50.3745 37.3146 48.4747 41.809 48.4747 46.4954C48.4747 51.1818 50.3745 55.6762 53.756 58.99C57.1376 62.3037 61.7239 64.1654 66.5062 64.1654ZM60.0684 70.7916C46.1926 70.7916 34.9512 81.8077 34.9512 95.4053C34.9512 97.6693 36.8247 99.5053 39.135 99.5053H93.8773C96.1876 99.5053 98.0612 97.6693 98.0612 95.4053C98.0612 81.8077 86.8197 70.7916 72.944 70.7916H60.0684Z" fill="white"/>
</svg>
