<svg width="22" height="26" viewBox="0 0 22 26" fill="none" xmlns="http://www.w3.org/2000/svg">
<path d="M7.46429 1.17857C7.46429 0.525446 6.93884 0 6.28571 0C5.63259 0 5.10714 0.525446 5.10714 1.17857V3.14286H3.14286C1.40938 3.14286 0 4.55223 0 6.28571V7.07143V9.42857V22C0 23.7335 1.40938 25.1429 3.14286 25.1429H18.8571C20.5906 25.1429 22 23.7335 22 22V9.42857V7.07143V6.28571C22 4.55223 20.5906 3.14286 18.8571 3.14286H16.8929V1.17857C16.8929 0.525446 16.3674 0 15.7143 0C15.0612 0 14.5357 0.525446 14.5357 1.17857V3.14286H7.46429V1.17857ZM2.35714 9.42857H19.6429V22C19.6429 22.4321 19.2893 22.7857 18.8571 22.7857H3.14286C2.71071 22.7857 2.35714 22.4321 2.35714 22V9.42857Z" fill="#5F5F5F"/>
</svg>
