<svg width="42" height="42" viewBox="0 0 42 42" fill="none" xmlns="http://www.w3.org/2000/svg">
<path d="M39.0887 1.36139C37.2735 -0.453796 34.3393 -0.453796 32.5242 1.36139L30.0293 3.84794L38.1438 11.9624L40.6386 9.46756C42.4538 7.65238 42.4538 4.71824 40.6386 2.90305L39.0887 1.36139ZM14.2894 19.5961C13.7838 20.1017 13.3942 20.7234 13.1705 21.4113L10.7171 28.7715C10.4767 29.4843 10.6673 30.2717 11.1978 30.8105C11.7283 31.3493 12.5157 31.5316 13.2368 31.2912L20.597 28.8378C21.2766 28.614 21.8983 28.2245 22.4122 27.7189L36.2789 13.8439L28.1561 5.72115L14.2894 19.5961ZM7.95698 4.86743C3.56406 4.86743 0 8.4315 0 12.8244V34.043C0 38.4359 3.56406 42 7.95698 42H29.1756C33.5685 42 37.1326 38.4359 37.1326 34.043V26.086C37.1326 24.619 35.9473 23.4337 34.4802 23.4337C33.0132 23.4337 31.8279 24.619 31.8279 26.086V34.043C31.8279 35.5101 30.6427 36.6953 29.1756 36.6953H7.95698C6.48991 36.6953 5.30465 35.5101 5.30465 34.043V12.8244C5.30465 11.3573 6.48991 10.1721 7.95698 10.1721H15.914C17.381 10.1721 18.5663 8.98683 18.5663 7.51976C18.5663 6.05269 17.381 4.86743 15.914 4.86743H7.95698Z" fill="#5F5F5F"/>
</svg>
