<svg width="22" height="26" viewBox="0 0 22 26" fill="none" xmlns="http://www.w3.org/2000/svg">
<path d="M10.7703 0.0225645C10.9225 -0.00752149 11.0797 -0.00752149 11.2319 0.0225645L21.0523 2.0283C21.6023 2.13861 22 2.63503 22 3.20666C22 3.7783 21.6023 4.27471 21.0523 4.38503L17.2862 5.15724V8.02042C17.2862 11.5655 14.4726 14.4388 11.0011 14.4388C7.52956 14.4388 4.716 11.5655 4.716 8.02042V5.15724L2.35909 4.67586V7.94019L3.13 11.8714C3.17419 12.1071 3.11527 12.3528 2.96796 12.5383C2.82066 12.7239 2.59479 12.8342 2.35909 12.8342H0.787822C0.552131 12.8342 0.331171 12.7289 0.178954 12.5383C0.0267369 12.3478 -0.0321858 12.1071 0.0169165 11.8714L0.787822 7.94019V4.3399C0.321351 4.17443 0.00218581 3.72314 0.00218581 3.20666C0.00218581 2.63503 0.399914 2.13861 0.949859 2.0283L10.7703 0.0225645ZM5.49673 16.4294C6.0123 16.259 6.56716 16.4495 6.94034 16.8557L10.4266 20.6415C10.7359 20.9774 11.2613 20.9774 11.5707 20.6415L15.0569 16.8557C15.4301 16.4495 15.985 16.259 16.5005 16.4294C19.6922 17.4774 22 20.5262 22 24.1315C22 24.9839 21.3224 25.6709 20.4926 25.6709H1.50963C0.679797 25.6709 0.00218581 24.9789 0.00218581 24.1315C0.00218581 20.5262 2.30999 17.4774 5.49673 16.4294Z" fill="black"/>
</svg>
