<svg width="18" height="24" viewBox="0 0 18 24" fill="none" xmlns="http://www.w3.org/2000/svg">
<path d="M9 0C7.04063 0 5.37188 1.25156 4.75781 3H3C1.34531 3 0 4.34531 0 6V21C0 22.6547 1.34531 24 3 24H15C16.6547 24 18 22.6547 18 21V6C18 4.34531 16.6547 3 15 3H13.2422C12.6281 1.25156 10.9594 0 9 0ZM9 3C9.39782 3 9.77935 3.15804 10.0607 3.43934C10.342 3.72064 10.5 4.10218 10.5 4.5C10.5 4.89782 10.342 5.27936 10.0607 5.56066C9.77935 5.84196 9.39782 6 9 6C8.60218 6 8.22064 5.84196 7.93934 5.56066C7.65804 5.27936 7.5 4.89782 7.5 4.5C7.5 4.10218 7.65804 3.72064 7.93934 3.43934C8.22064 3.15804 8.60218 3 9 3ZM14.2969 12.7969L8.29688 18.7969C7.85625 19.2375 7.14375 19.2375 6.70781 18.7969L3.70312 15.7969C3.2625 15.3563 3.2625 14.6438 3.70312 14.2078C4.14375 13.7719 4.85625 13.7672 5.29219 14.2078L7.49531 16.4109L12.7031 11.2031C13.1437 10.7625 13.8562 10.7625 14.2922 11.2031C14.7281 11.6437 14.7328 12.3562 14.2922 12.7922L14.2969 12.7969Z" fill="black"/>
</svg>
