<svg width="42" height="33" viewBox="0 0 42 33" fill="none" xmlns="http://www.w3.org/2000/svg">
<path d="M28.0018 33.0021H31.502C32.3333 33.0021 33.099 32.5602 33.5147 31.8309L41.6819 17.6871C42.1048 16.9578 42.1048 16.0591 41.6892 15.3224C41.2735 14.5858 40.5078 14.1438 39.6692 14.1438H10.5007C9.66938 14.1438 8.9037 14.5858 8.48805 15.3151L3.50023 23.9487V4.71459C3.50023 4.06634 4.02526 3.53594 4.66697 3.53594H13.2352C13.5415 3.53594 13.8405 3.66118 14.0592 3.88217L15.9917 5.83431C17.523 7.38128 19.6013 8.25054 21.767 8.25054H30.3353C30.977 8.25054 31.502 8.78093 31.502 9.42918V11.7865H35.0023V9.42918C35.0023 6.82879 32.9094 4.71459 30.3353 4.71459H21.767C20.5274 4.71459 19.3388 4.22103 18.4637 3.33705L16.5313 1.37755C15.6562 0.493559 14.4676 0 13.2279 0H4.66697C2.09284 0 0 2.1142 0 4.71459V28.2876C0 30.8879 2.09284 33.0021 4.66697 33.0021H6.39521H28.0018Z" fill="#5F5F5F"/>
</svg>
