<svg width="22" height="26" viewBox="0 0 22 26" fill="none" xmlns="http://www.w3.org/2000/svg">
<path d="M6.63929 0.869197C6.90446 0.333929 7.44955 0 8.04375 0H13.9563C14.5504 0 15.0955 0.333929 15.3607 0.869197L15.7143 1.57143H20.4286C21.2978 1.57143 22 2.27366 22 3.14286C22 4.01205 21.2978 4.71429 20.4286 4.71429H1.57143C0.702232 4.71429 0 4.01205 0 3.14286C0 2.27366 0.702232 1.57143 1.57143 1.57143H6.28571L6.63929 0.869197ZM1.57143 6.28571H20.4286V22C20.4286 23.7335 19.0192 25.1429 17.2857 25.1429H4.71429C2.9808 25.1429 1.57143 23.7335 1.57143 22V6.28571ZM6.28571 9.42857C5.85357 9.42857 5.5 9.78214 5.5 10.2143V21.2143C5.5 21.6464 5.85357 22 6.28571 22C6.71786 22 7.07143 21.6464 7.07143 21.2143V10.2143C7.07143 9.78214 6.71786 9.42857 6.28571 9.42857ZM11 9.42857C10.5679 9.42857 10.2143 9.78214 10.2143 10.2143V21.2143C10.2143 21.6464 10.5679 22 11 22C11.4321 22 11.7857 21.6464 11.7857 21.2143V10.2143C11.7857 9.78214 11.4321 9.42857 11 9.42857ZM15.7143 9.42857C15.2821 9.42857 14.9286 9.78214 14.9286 10.2143V21.2143C14.9286 21.6464 15.2821 22 15.7143 22C16.1464 22 16.5 21.6464 16.5 21.2143V10.2143C16.5 9.78214 16.1464 9.42857 15.7143 9.42857Z" fill="#A8A8A8"/>
</svg>
