<svg width="22" height="20" viewBox="0 0 22 20" fill="none" xmlns="http://www.w3.org/2000/svg">
<path d="M13.2267 10.5328L10.9313 9.66888L8.17361 17.4837H1.22222C0.546181 17.4837 0 18.0478 0 18.746C0 19.4443 0.546181 20.0084 1.22222 20.0084H20.7778C21.4538 20.0084 22 19.4443 22 18.746C22 18.0478 21.4538 17.4837 20.7778 17.4837H10.7747L13.2229 10.5328H13.2267ZM17.8521 10.5249L17.726 10.8839L20.3118 11.8543C21.0031 12.1147 21.7632 11.6887 21.8243 10.9312C22.0726 7.83451 20.9115 4.79696 18.7382 2.70618C18.8146 3.02177 18.8604 3.34919 18.8681 3.68451L18.8757 3.9212C18.9444 6.16978 18.5969 8.41046 17.8521 10.5249ZM17.6458 3.72001C17.6038 2.36298 16.7865 1.16374 15.5681 0.666683C15.5337 0.650904 15.4955 0.639069 15.4611 0.62329C14.2007 0.16174 12.7951 0.528613 11.9052 1.56217L11.7524 1.73969C10.4042 3.29397 9.35764 5.10466 8.6625 7.06921L8.53646 7.42819L16.5764 10.45L16.7024 10.091C17.3938 8.12643 17.7184 6.04749 17.6535 3.9567L17.6458 3.72001ZM4.09444 4.26441C3.67049 4.88375 3.9875 5.71612 4.67882 5.97648L7.39062 6.99426L7.51667 6.63527C8.26146 4.52082 9.39201 2.57206 10.8434 0.895486L10.9962 0.717966C11.233 0.44577 11.4965 0.205133 11.7792 0C8.73889 0.0986218 5.87049 1.66474 4.09444 4.26046V4.26441Z" fill="black"/>
</svg>
