<svg width="16" height="16" viewBox="0 0 16 16" fill="none" xmlns="http://www.w3.org/2000/svg">
<path d="M8.66669 11.3334L7.33335 11.3334L7.33335 10.0001L8.66669 10.0001L8.66669 11.3334ZM8.66669 8.66675L7.33335 8.66675L7.33335 4.66675L8.66669 4.66675L8.66669 8.66675ZM8.00002 14.6667C11.68 14.6667 14.6667 11.6801 14.6667 8.00008C14.6667 4.32008 11.68 1.33341 8.00002 1.33341C4.32002 1.33341 1.33335 4.32008 1.33335 8.00008C1.33335 11.6801 4.32002 14.6667 8.00002 14.6667ZM8.00002 2.66675C10.94 2.66675 13.3334 5.06008 13.3334 8.00008C13.3334 10.9401 10.94 13.3334 8.00002 13.3334C5.06002 13.3334 2.66669 10.9401 2.66669 8.00008C2.66669 5.06008 5.06002 2.66675 8.00002 2.66675Z" fill="#EE5151"/>
</svg>
