<svg width="42" height="42" viewBox="0 0 42 42" fill="none" xmlns="http://www.w3.org/2000/svg">
<path d="M32.7305 31.5164C30.9176 28.3664 27.5133 26.25 23.625 26.25H18.375C14.4867 26.25 11.0824 28.3664 9.26953 31.5164C12.157 34.732 16.3406 36.75 21 36.75C25.6594 36.75 29.843 34.7238 32.7305 31.5164ZM0 21C0 15.4305 2.21249 10.089 6.15076 6.15076C10.089 2.21249 15.4305 0 21 0C26.5695 0 31.911 2.21249 35.8492 6.15076C39.7875 10.089 42 15.4305 42 21C42 26.5695 39.7875 31.911 35.8492 35.8492C31.911 39.7875 26.5695 42 21 42C15.4305 42 10.089 39.7875 6.15076 35.8492C2.21249 31.911 0 26.5695 0 21ZM21 22.3125C22.5664 22.3125 24.0687 21.6902 25.1763 20.5826C26.284 19.475 26.9062 17.9727 26.9062 16.4062C26.9062 14.8398 26.284 13.3375 25.1763 12.2299C24.0687 11.1223 22.5664 10.5 21 10.5C19.4336 10.5 17.9313 11.1223 16.8237 12.2299C15.716 13.3375 15.0938 14.8398 15.0938 16.4062C15.0938 17.9727 15.716 19.475 16.8237 20.5826C17.9313 21.6902 19.4336 22.3125 21 22.3125Z" fill="#5F5F5F"/>
</svg>
