<svg width="130" height="128" viewBox="0 0 130 128" fill="none" xmlns="http://www.w3.org/2000/svg">
<ellipse cx="65" cy="63.6472" rx="65" ry="63.6472" fill="#E2DEDE"/>
<path d="M65.0003 62.3742C69.7287 62.3742 74.2635 60.5637 77.607 57.3409C80.9505 54.1181 82.8289 49.7471 82.8289 45.1895C82.8289 40.6318 80.9505 36.2608 77.607 33.038C74.2635 29.8152 69.7287 28.0047 65.0003 28.0047C60.2719 28.0047 55.7371 29.8152 52.3936 33.038C49.0501 36.2608 47.1717 40.6318 47.1717 45.1895C47.1717 49.7471 49.0501 54.1181 52.3936 57.3409C55.7371 60.5637 60.2719 62.3742 65.0003 62.3742ZM58.6349 68.8185C44.9153 68.8185 33.8003 79.5321 33.8003 92.7563C33.8003 94.9581 35.6528 96.7437 37.9371 96.7437H92.0635C94.3478 96.7437 96.2003 94.9581 96.2003 92.7563C96.2003 79.5321 85.0853 68.8185 71.3657 68.8185H58.6349Z" fill="white"/>
</svg>
