<svg width="42" height="48" viewBox="0 0 42 48" fill="none" xmlns="http://www.w3.org/2000/svg">
<path d="M21 0C19.3405 0 17.9997 1.33301 17.9997 2.98295V4.77273C11.1553 6.15234 5.9985 12.1742 5.9985 19.3892V21.7569C5.9985 25.989 4.54523 30.0999 1.89184 33.3998L0.494828 35.1429C-0.0489763 35.8141 -0.152112 36.7369 0.222926 37.5106C0.597963 38.2844 1.38554 38.7784 2.24813 38.7784H39.7519C40.6145 38.7784 41.402 38.2844 41.7771 37.5106C42.1521 36.7369 42.049 35.8141 41.5052 35.1429L40.1082 33.4091C37.4548 30.0999 36.0015 25.989 36.0015 21.7569V19.3892C36.0015 12.1742 30.8447 6.15234 24.0003 4.77273V2.98295C24.0003 1.33301 22.6595 0 21 0ZM21 8.94886C26.8037 8.94886 31.501 13.6191 31.501 19.3892V21.7569C31.501 26.222 32.8043 30.5753 35.2233 34.304H6.77671C9.1957 30.5753 10.499 26.222 10.499 21.7569V19.3892C10.499 13.6191 15.1963 8.94886 21 8.94886ZM27.0006 41.7614H21H14.9994C14.9994 43.3461 15.6276 44.8655 16.7527 45.9841C17.8778 47.1027 19.4061 47.7273 21 47.7273C22.5939 47.7273 24.1222 47.1027 25.2473 45.9841C26.3724 44.8655 27.0006 43.3461 27.0006 41.7614Z" fill="#5F5F5F"/>
</svg>
