<svg width="20" height="19" viewBox="0 0 20 19" fill="none" xmlns="http://www.w3.org/2000/svg">
<path d="M18.6281 3.62815C19.3442 2.912 19.3442 1.74898 18.6281 1.03284C17.9119 0.316691 16.7489 0.316691 16.0328 1.03284L9.99994 7.07138L3.9614 1.03857C3.24526 0.32242 2.08223 0.32242 1.36609 1.03857C0.649943 1.75471 0.649943 2.91773 1.36609 3.63388L7.40463 9.66669L1.37182 15.7052C0.655672 16.4214 0.655672 17.5844 1.37182 18.3005C2.08796 19.0167 3.25098 19.0167 3.96713 18.3005L9.99994 12.262L16.0385 18.2948C16.7546 19.011 17.9177 19.011 18.6338 18.2948C19.3499 17.5787 19.3499 16.4156 18.6338 15.6995L12.5953 9.66669L18.6281 3.62815Z" fill="black"/>
</svg>
