<svg width="22" height="22" viewBox="0 0 22 22" fill="none" xmlns="http://www.w3.org/2000/svg">
<path d="M15.6014 0.806541L13.5195 2.88849L19.1115 8.48051L21.1935 6.39856C22.2688 5.32317 22.2688 3.58104 21.1935 2.50565L19.4986 0.806541C18.4233 -0.268847 16.6811 -0.268847 15.6057 0.806541H15.6014ZM12.5473 3.86064L2.52041 13.8919C2.07305 14.3392 1.74613 14.8941 1.56547 15.5006L0.0427174 20.6754C-0.0648214 21.041 0.0341143 21.4325 0.300811 21.6992C0.567507 21.9659 0.958948 22.0648 1.32028 21.9616L6.49505 20.4388C7.10157 20.2582 7.65647 19.9312 8.10383 19.4839L18.1394 9.45266L12.5473 3.86064Z" fill="#A8A8A8"/>
</svg>
