<svg width="22" height="22" viewBox="0 0 22 22" fill="none" xmlns="http://www.w3.org/2000/svg">
<path d="M11 0C13.9174 0 16.7153 1.15893 18.7782 3.22183C20.8411 5.28473 22 8.08262 22 11C22 13.9174 20.8411 16.7153 18.7782 18.7782C16.7153 20.8411 13.9174 22 11 22C8.08262 22 5.28473 20.8411 3.22183 18.7782C1.15893 16.7153 0 13.9174 0 11C0 8.08262 1.15893 5.28473 3.22183 3.22183C5.28473 1.15893 8.08262 0 11 0ZM9.96875 5.15625V11C9.96875 11.3438 10.1406 11.666 10.4285 11.8594L14.5535 14.6094C15.0262 14.9273 15.6664 14.7984 15.9844 14.3215C16.3023 13.8445 16.1734 13.2086 15.6965 12.8906L12.0312 10.45V5.15625C12.0312 4.58477 11.5715 4.125 11 4.125C10.4285 4.125 9.96875 4.58477 9.96875 5.15625Z" fill="black"/>
</svg>
